<?xml version="1.0" encoding="utf-8"?>
<!-- Generator: Adobe Illustrator 16.0.0, SVG Export Plug-In . SVG Version: 6.00 Build 0)  -->
<!DOCTYPE svg PUBLIC "-//W3C//DTD SVG 1.1//EN" "http://www.w3.org/Graphics/SVG/1.1/DTD/svg11.dtd">
<svg version="1.1" id="Layer_1" xmlns="http://www.w3.org/2000/svg" xmlns:xlink="http://www.w3.org/1999/xlink" x="0px" y="0px"
	 width="354px" height="306px" viewBox="0 0 354 306" enable-background="new 0 0 354 306" xml:space="preserve">
<ellipse fill="#5FB360" cx="174.034" cy="273.158" rx="157.111" ry="4.942"/>
<ellipse fill="#5FB360" cx="174.034" cy="296.174" rx="136.029" ry="4.941"/>
<g>
	<path fill="#FFFFFF" d="M212.429,287.225H99.708v8.788h126.798l-3.039-3.632C220.732,289.112,216.689,287.225,212.429,287.225z"/>
	<path fill="#C1E7F1" d="M107.333,287.225H75.406c-1.041,0-1.883,0.843-1.883,1.883v5.021c0,1.041,0.843,1.884,1.883,1.884h46.003
		l-3.04-3.632C115.636,289.112,111.594,287.225,107.333,287.225z"/>
	<path fill="#2A3A59" d="M94.821,283.638h-7.264c-0.966,0-1.749,0.783-1.749,1.748v1.839h10.761v-1.839
		C96.569,284.421,95.787,283.638,94.821,283.638z"/>
	<path fill="#2A3A59" d="M110.246,283.638h-7.264c-0.966,0-1.749,0.783-1.749,1.748v1.839h10.761v-1.839
		C111.994,284.421,111.211,283.638,110.246,283.638z"/>
	<path fill="#2A3A59" d="M125.67,283.638h-7.263c-0.966,0-1.749,0.783-1.749,1.748v1.839h10.761v-1.839
		C127.419,284.421,126.636,283.638,125.67,283.638z"/>
	<path fill="#2A3A59" d="M141.095,283.638h-7.263c-0.966,0-1.749,0.783-1.749,1.748v1.839h10.761v-1.839
		C142.843,284.421,142.061,283.638,141.095,283.638z"/>
	<path fill="#2A3A59" d="M171.944,283.638h-7.263c-0.966,0-1.749,0.783-1.749,1.748v1.839h10.761v-1.839
		C173.693,284.421,172.91,283.638,171.944,283.638z"/>
	<path fill="#2A3A59" d="M187.37,283.638h-7.265c-0.966,0-1.748,0.783-1.748,1.748v1.839h10.76v-1.839
		C189.117,284.421,188.335,283.638,187.37,283.638z"/>
	<path fill="#2A3A59" d="M202.794,283.638h-7.265c-0.965,0-1.747,0.783-1.747,1.748v1.839h10.76v-1.839
		C204.542,284.421,203.761,283.638,202.794,283.638z"/>
	<path fill="#3B589A" d="M97.153,283.638h-7.264c-0.966,0-1.749,0.783-1.749,1.748v1.839h10.761v-1.839
		C98.901,284.421,98.118,283.638,97.153,283.638z"/>
	<path fill="#3B589A" d="M112.577,283.638h-7.264c-0.965,0-1.749,0.783-1.749,1.748v1.839h10.761v-1.839
		C114.326,284.421,113.543,283.638,112.577,283.638z"/>
	<path fill="#3B589A" d="M128.002,283.638h-7.264c-0.966,0-1.75,0.783-1.75,1.748v1.839h10.761v-1.839
		C129.75,284.421,128.968,283.638,128.002,283.638z"/>
	<path fill="#3B589A" d="M158.852,283.638h-22.689c-0.965,0-1.749,0.783-1.749,1.748v1.839H160.6v-1.839
		C160.6,284.421,159.817,283.638,158.852,283.638z"/>
	<path fill="#3B589A" d="M174.276,283.638h-7.263c-0.965,0-1.749,0.783-1.749,1.748v1.839h10.761v-1.839
		C176.025,284.421,175.242,283.638,174.276,283.638z"/>
	<path fill="#3B589A" d="M189.701,283.638h-7.264c-0.967,0-1.749,0.783-1.749,1.748v1.839h10.76v-1.839
		C191.448,284.421,190.667,283.638,189.701,283.638z"/>
	<path fill="#3B589A" d="M205.126,283.638h-7.264c-0.966,0-1.748,0.783-1.748,1.748v1.839h10.761v-1.839
		C206.875,284.421,206.092,283.638,205.126,283.638z"/>
</g>
<path fill="#BFE6F1" d="M99.986,21.209H83.061c-5.126,0-9.282,4.155-9.282,9.282v12.011c0,4.065,2.617,7.511,6.255,8.767
	l0.296,6.437l8.339-5.921h11.316c5.125,0,9.281-4.156,9.281-9.282V30.491C109.267,25.365,105.111,21.209,99.986,21.209z"/>
<path fill="#FFFFFF" d="M120.432,4.186H98.103c-6.763,0-12.245,5.482-12.245,12.246v15.846c0,6.763,5.482,12.245,12.245,12.245
	h14.93l11,7.813l0.392-8.493c4.799-1.657,8.251-6.203,8.251-11.565V16.431C132.677,9.668,127.194,4.186,120.432,4.186z"/>
<text transform="matrix(1 0 0 1 91.5234 31.4541)" fill="#1A8140" font-family="'Montserrat-ExtraBold'" font-size="19.4168">&lt; / &gt;</text>
<g>
	<polygon fill="#A4DCE8" points="194.354,266.031 155.686,266.031 160.945,227.364 189.096,227.364 	"/>
	<path fill="#C1E7F1" d="M127.518,273.158l0.698-1.075c2.454-3.775,6.649-6.052,11.15-6.052h66.507
		c4.672,0,8.999,2.451,11.401,6.456l0.403,0.671H127.518z"/>
	<path fill="#C1E7F1" d="M289.066,72.375v149.538c0,3.013-2.441,5.447-5.448,5.447H56.508c-3.014,0-5.456-2.435-5.456-5.447V72.375
		c0-0.136,0-0.273,0.008-0.41c0.128-4.132,3.467-7.471,7.6-7.599c0.136-0.008,0.273-0.008,0.41-0.008H281.21
		c0.086,0,0.172,0.008,0.257,0.008c4.132,0.128,7.463,3.459,7.591,7.599C289.066,72.102,289.066,72.239,289.066,72.375z"/>
	<path fill="#212D45" d="M51.056,72.374v124.534h238.013V72.374c0-4.426-3.587-8.013-8.013-8.013H59.069
		C54.643,64.361,51.056,67.948,51.056,72.374z"/>
	<path fill="#FFFFFF" d="M297.016,72.127v149.786c0,3.013-2.442,5.447-5.456,5.447H64.449c-3.006,0-5.448-2.435-5.448-5.447V72.127
		c0-0.103,0-0.205,0.009-0.308c0.205-4.021,3.423-7.249,7.445-7.454c0.103-0.008,0.205-0.008,0.308-0.008h222.482
		c0.104,0,0.205,0,0.309,0.008c4.028,0.205,7.249,3.424,7.452,7.454C297.016,71.923,297.016,72.025,297.016,72.127z"/>
	<circle fill="#C1E7F1" cx="180.143" cy="212.136" r="6.948"/>
	<path fill="#FFFFFF" d="M135.304,273.158l0.699-1.075c2.453-3.775,6.649-6.052,11.15-6.052h66.506
		c4.672,0,8.999,2.451,11.403,6.456l0.401,0.671H135.304z"/>
	<path fill="#2A3A59" d="M58.999,72.125v124.783h238.013V72.125c0-4.288-3.476-7.765-7.764-7.765H66.763
		C62.475,64.361,58.999,67.837,58.999,72.125z"/>
	<path fill="#3B589A" d="M66.838,76.618v109.103c0,2.341,1.898,4.238,4.239,4.238h215.459c2.342,0,4.24-1.897,4.24-4.238V76.618
		c0-2.342-1.898-4.24-4.24-4.24H71.077C68.736,72.378,66.838,74.276,66.838,76.618z"/>
	<polygon fill="#C1E7F1" points="199.478,266.031 160.809,266.031 166.068,227.364 194.219,227.364 	"/>
	<path fill="#FFFFFF" d="M290.776,90.489H66.838V76.191c0-2.106,1.707-3.813,3.813-3.813h216.313c2.105,0,3.813,1.707,3.813,3.813
		V90.489z"/>
	<circle fill="#F2632E" cx="257.515" cy="81.434" r="2.585"/>
	<circle fill="#22A84F" cx="267.304" cy="81.434" r="2.584"/>
	<circle fill="#FCD740" cx="277.095" cy="81.434" r="2.586"/>
	<g>
		<rect x="82.224" y="103.621" fill="#F2632E" width="12.439" height="4.554"/>
		<rect x="101.536" y="103.621" fill="#FCD740" width="22.443" height="4.554"/>
		<rect x="90.768" y="113.297" fill="#FFFFFF" width="46.616" height="4.555"/>
		<rect x="144.256" y="113.297" fill="#46C7EC" width="12.439" height="4.555"/>
		<rect x="90.768" y="122.975" fill="#FFFFFF" width="46.616" height="4.554"/>
		<rect x="144.256" y="122.975" fill="#46C7EC" width="12.439" height="4.554"/>
		<rect x="90.768" y="132.652" fill="#FFFFFF" width="46.616" height="4.553"/>
		<rect x="144.256" y="132.652" fill="#46C7EC" width="12.439" height="4.553"/>
		<rect x="82.224" y="142.329" fill="#F2632E" width="12.439" height="4.554"/>
		<rect x="101.536" y="142.329" fill="#FCD740" width="22.443" height="4.554"/>
		<rect x="90.768" y="152.005" fill="#46C7EC" width="23.308" height="4.555"/>
		<rect x="120.949" y="152.005" fill="#FFFFFF" width="35.747" height="4.555"/>
		<rect x="90.768" y="161.684" fill="#46C7EC" width="23.308" height="4.554"/>
		<rect x="120.949" y="161.684" fill="#FFFFFF" width="35.747" height="4.554"/>
		<rect x="90.768" y="171.36" fill="#46C7EC" width="23.308" height="4.554"/>
		<rect x="120.949" y="171.36" fill="#FFFFFF" width="35.747" height="4.554"/>
	</g>
	<g>
		<rect x="199.313" y="103.621" fill="#FCD740" width="12.44" height="4.554"/>
		<rect x="218.628" y="103.621" fill="#22A84F" width="22.441" height="4.554"/>
		<rect x="207.859" y="113.297" fill="#FFFFFF" width="10.769" height="4.555"/>
		<rect x="225.5" y="113.297" fill="#46C7EC" width="48.287" height="4.555"/>
		<rect x="207.859" y="122.975" fill="#FFFFFF" width="10.769" height="4.554"/>
		<rect x="225.5" y="122.975" fill="#F2632E" width="48.287" height="4.554"/>
		<rect x="207.859" y="132.652" fill="#FFFFFF" width="10.769" height="4.553"/>
		<rect x="225.5" y="132.652" fill="#46C7EC" width="48.287" height="4.553"/>
		<rect x="199.313" y="142.329" fill="#FCD740" width="12.44" height="4.554"/>
		<rect x="218.628" y="142.329" fill="#22A84F" width="22.441" height="4.554"/>
		<rect x="207.859" y="152.005" fill="#46C7EC" width="38.348" height="4.555"/>
		<rect x="253.08" y="152.005" fill="#FFFFFF" width="20.707" height="4.555"/>
		<rect x="207.859" y="161.684" fill="#22A84F" width="38.348" height="4.554"/>
		<rect x="253.08" y="161.684" fill="#FFFFFF" width="20.707" height="4.554"/>
		<rect x="207.859" y="171.36" fill="#46C7EC" width="38.348" height="4.554"/>
		<rect x="253.08" y="171.36" fill="#FFFFFF" width="20.707" height="4.554"/>
	</g>
	
		<line fill="none" stroke="#212D45" stroke-linecap="round" stroke-linejoin="round" stroke-miterlimit="10" x1="178.006" y1="101.059" x2="178.006" y2="183.274"/>
</g>
<path fill="#FFFFFF" d="M207.224,53.91c0.81-5.256,3.664-9.14,7.046-9.126c1.633,0.007,3.134,0.921,4.339,2.455
	c1.476-4.579,4.368-7.69,7.686-7.677c1.741,0.007,3.355,0.876,4.708,2.36c1.887-4.572,5.038-7.566,8.6-7.551
	c5.728,0.024,10.338,7.824,10.298,17.421c-0.004,0.779-0.04,1.544-0.103,2.295L207.224,53.91z"/>
<polygon fill="#22A84F" points="237.946,58.011 237.987,48.109 224.586,48.054 224.545,57.956 221.02,57.941 226.107,64.12 
	231.193,70.298 236.334,64.162 241.473,58.026 "/>
<g>
	<path fill="#212D45" d="M82.204,265.629H38.375c-1.74,0-3.151-1.41-3.151-3.15v-53.032c0-1.74,1.411-3.151,3.151-3.151h43.829
		c1.739,0,3.151,1.411,3.151,3.151v53.032C85.354,264.219,83.943,265.629,82.204,265.629z"/>
	<g>
		<rect x="46.199" y="214.018" fill="#F2632E" width="4.708" height="1.94"/>
		<rect x="53.507" y="214.018" fill="#FCD740" width="8.492" height="1.94"/>
		<rect x="49.432" y="218.141" fill="#FFFFFF" width="17.639" height="1.939"/>
		<rect x="69.672" y="218.141" fill="#46C7EC" width="4.707" height="1.939"/>
		<rect x="49.432" y="222.263" fill="#FFFFFF" width="17.639" height="1.94"/>
		<rect x="69.672" y="222.263" fill="#46C7EC" width="4.707" height="1.94"/>
		<rect x="49.432" y="226.386" fill="#FFFFFF" width="17.639" height="1.939"/>
		<rect x="69.672" y="226.386" fill="#46C7EC" width="4.707" height="1.939"/>
		<rect x="46.199" y="230.508" fill="#F2632E" width="4.708" height="1.94"/>
		<rect x="53.507" y="230.508" fill="#FCD740" width="8.492" height="1.94"/>
		<rect x="49.432" y="234.631" fill="#46C7EC" width="8.819" height="1.939"/>
		<rect x="60.853" y="234.631" fill="#FFFFFF" width="13.526" height="1.939"/>
		<rect x="49.432" y="238.753" fill="#46C7EC" width="8.819" height="1.94"/>
		<rect x="60.853" y="238.753" fill="#FFFFFF" width="13.526" height="1.94"/>
		<rect x="49.432" y="242.876" fill="#46C7EC" width="8.819" height="1.939"/>
		<rect x="60.853" y="242.876" fill="#FFFFFF" width="13.526" height="1.939"/>
	</g>
	<g>
		<polygon fill="#FCCC0B" points="88.93,273.158 31.647,273.158 31.647,233.178 60.289,257.257 88.93,233.178 		"/>
		<polygon fill="#FCD740" points="31.647,273.158 60.289,239.879 88.93,273.158 		"/>
	</g>
</g>
<g>
	<path fill="#FFFFFF" d="M267.79,287.403c-17.764,0-14.017,1.707-15.866,8.609h36.824c0.823,0,1.382-0.91,0.941-1.605
		C287.337,290.683,277.288,287.403,267.79,287.403z"/>
	<path fill="#C1E7F1" d="M257.567,288.17c-5.67,0-7.841,2.9-8.188,6.682c-0.059,0.625,0.451,1.161,1.079,1.161h21.458
		C271.917,291.682,263.806,288.17,257.567,288.17z"/>
	<path fill="#2A3A59" d="M266.396,287.529c-1.224-0.416-2.473-0.669-3.761-0.777c-0.547-0.047-0.542,0.807,0.002,0.854
		c1.211,0.103,2.384,0.357,3.532,0.749C266.691,288.53,266.913,287.706,266.396,287.529z"/>
</g>
<path fill="#FFFFFF" d="M315.437,140.954v-7.497l-4.551-0.771c-0.234-0.725-0.526-1.425-0.866-2.095l2.67-3.762l-5.3-5.302
	l-3.763,2.671c-0.67-0.341-1.371-0.631-2.094-0.867l-0.772-4.549h-3.749h-3.75l-0.77,4.549c-0.726,0.236-1.425,0.526-2.095,0.867
	l-3.763-2.671l-5.302,5.302l2.672,3.762c-0.342,0.669-0.632,1.37-0.869,2.095l-4.547,0.771v7.497l4.547,0.771
	c0.237,0.725,0.527,1.425,0.869,2.095l-2.672,3.762l5.302,5.302l3.763-2.671c0.67,0.342,1.369,0.632,2.095,0.868l0.77,4.549h3.75
	h3.749l0.772-4.549c0.723-0.236,1.424-0.526,2.094-0.868l3.763,2.671l5.3-5.302l-2.67-3.762c0.34-0.67,0.632-1.37,0.866-2.095
	L315.437,140.954z M297.012,148.273c-6.112,0-11.067-4.955-11.067-11.067s4.955-11.067,11.067-11.067s11.066,4.955,11.066,11.067
	S303.124,148.273,297.012,148.273z"/>
<path fill="#FCD740" d="M320.277,114.091v-3.818l-2.318-0.394c-0.12-0.369-0.267-0.725-0.44-1.066l1.359-1.916l-2.7-2.7l-1.915,1.36
	c-0.341-0.173-0.698-0.322-1.066-0.442l-0.394-2.316h-1.909h-1.907l-0.395,2.316c-0.369,0.12-0.725,0.269-1.066,0.442l-1.917-1.36
	l-2.698,2.7l1.358,1.916c-0.173,0.341-0.321,0.697-0.441,1.066l-2.315,0.394v3.818l2.315,0.392c0.12,0.369,0.269,0.726,0.441,1.067
	l-1.358,1.916l2.698,2.7l1.917-1.361c0.342,0.174,0.697,0.322,1.066,0.442l0.395,2.317h1.907h1.909l0.394-2.317
	c0.368-0.12,0.726-0.268,1.066-0.442l1.915,1.361l2.7-2.7l-1.359-1.916c0.174-0.342,0.32-0.698,0.44-1.067L320.277,114.091z
	 M310.894,117.818c-3.112,0-5.636-2.523-5.636-5.637c0-3.113,2.523-5.636,5.636-5.636c3.113,0,5.636,2.523,5.636,5.636
	C316.529,115.294,314.007,117.818,310.894,117.818z"/>
<g>
	<path fill="#22A84F" d="M293.527,129.473l4.215,4.214c1.122,1.123,1.122,2.942,0,4.065l0,0c-1.122,1.123-2.943,1.123-4.065,0
		l-4.28-4.28c-1.57,3.19-1.036,7.153,1.618,9.808c2.415,2.413,5.911,3.071,8.926,1.99l11.173,11.173
		c1.408,1.408,3.72,1.551,5.169,0.187c1.498-1.412,1.525-3.774,0.08-5.22l-11.281-11.282c1.081-3.014,0.424-6.511-1.991-8.925
		C300.504,128.617,296.674,128.046,293.527,129.473z"/>
	<path fill="#1A8140" d="M312.747,152.936L312.747,152.936c-0.494,0.496-1.298,0.496-1.794,0l-7.186-7.187
		c-0.495-0.496-0.495-1.299,0-1.793l0,0c0.494-0.496,1.298-0.496,1.792,0l7.188,7.188
		C313.243,151.639,313.243,152.441,312.747,152.936z"/>
</g>
<g>
	<path opacity="0.1" fill="#212D45" d="M267.574,196.911l-1.271-6.95l-1.401-7.676h-5.942l1.399,7.676l1.034,5.636h-19.485
		l-1.023-5.636l-1.401-7.676h-5.952l1.401,7.676l1.033,5.636l0.238,1.314l0.847,4.628l2.457,13.491l1.094,5.942l1.161,6.388h5.943
		l-1.162-6.388h19.478l1.169,6.388h5.944L267.574,196.911z M245.459,215.03l-2.46-13.491h19.478l2.459,13.491H245.459z"/>
	<g>
		<g>
			<polygon fill="#FCD740" points="280.122,273.158 286.069,273.158 269.478,182.28 263.53,182.28 			"/>
			<polygon fill="#FCD740" points="254.696,273.158 260.644,273.158 244.053,182.28 238.104,182.28 			"/>
			<polygon fill="#FCD740" points="283.533,259.844 282.447,253.897 251.182,253.897 252.267,259.844 			"/>
			<polygon fill="#FCD740" points="279.985,240.409 278.9,234.463 247.632,234.463 248.719,240.409 			"/>
			<polygon fill="#FCD740" points="276.438,220.976 275.351,215.027 244.083,215.027 245.169,220.976 			"/>
			<polygon fill="#FCD740" points="272.888,201.54 271.803,195.594 240.536,195.594 241.621,201.54 			"/>
		</g>
	</g>
</g>
<path fill="#3B589A" d="M316.047,242.065h-15.58c-4.283,0-7.757,3.473-7.757,7.756v15.58c0,4.283,3.474,7.757,7.757,7.757h15.58
	c4.283,0,7.756-3.474,7.756-7.757v-15.58C323.803,245.538,320.33,242.065,316.047,242.065z"/>
<path fill="#FFFFFF" d="M315.786,255.944c0.906,0,1.642-0.734,1.642-1.641v-0.054c0-0.906-0.735-1.642-1.642-1.642h-1.618
	l0.406-2.233c0.183-1.008-0.591-1.934-1.613-1.934c-0.793,0-1.472,0.567-1.613,1.348l-0.515,2.819H307.5l0.405-2.233
	c0.184-1.008-0.592-1.934-1.613-1.934c-0.794,0-1.473,0.567-1.614,1.348l-0.514,2.819h-3.438c-0.905,0-1.64,0.735-1.64,1.642v0.054
	c0,0.906,0.734,1.641,1.64,1.641h2.832l-0.606,3.334h-2.226c-0.905,0-1.64,0.734-1.64,1.641v0.054c0,0.906,0.734,1.64,1.64,1.64
	h1.62l-0.407,2.234c-0.184,1.008,0.59,1.935,1.614,1.935c0.792,0,1.473-0.567,1.614-1.347l0.512-2.822h3.335l-0.406,2.234
	c-0.183,1.008,0.591,1.935,1.614,1.935c0.792,0,1.473-0.567,1.615-1.347l0.512-2.822h3.437c0.906,0,1.642-0.733,1.642-1.64v-0.054
	c0-0.906-0.735-1.641-1.642-1.641h-2.83l0.605-3.334H315.786z M309.621,259.278h-3.334l0.605-3.334h3.336L309.621,259.278z"/>
<g>
	<path fill="none" stroke="#22A84F" stroke-width="2" stroke-miterlimit="10" d="M293.923,208.605h6.565
		c3.887,0,7.037,3.15,7.037,7.036v16.429"/>
	<circle fill="none" stroke="#22A84F" stroke-width="2" stroke-miterlimit="10" cx="290.65" cy="208.605" r="3.273"/>
	<circle fill="none" stroke="#22A84F" stroke-width="2" stroke-miterlimit="10" cx="307.524" cy="235.595" r="3.273"/>
</g>
<g>
	<path fill="none" stroke="#22A84F" stroke-width="2" stroke-miterlimit="10" d="M121.187,220.884v35.614
		c0,3.886-3.149,7.036-7.036,7.036h-12.157"/>
	<circle fill="none" stroke="#22A84F" stroke-width="2" stroke-miterlimit="10" cx="121.187" cy="217.61" r="3.273"/>
	<circle fill="none" stroke="#22A84F" stroke-width="2" stroke-miterlimit="10" cx="98.469" cy="263.534" r="3.272"/>
</g>
<g>
	<path fill="none" stroke="#22A84F" stroke-width="2" stroke-miterlimit="10" d="M145.395,22.972h16.819
		c3.885,0,7.035,3.15,7.035,7.036V78.05"/>
	<circle fill="none" stroke="#22A84F" stroke-width="2" stroke-miterlimit="10" cx="142.122" cy="22.972" r="3.273"/>
	<circle fill="none" stroke="#22A84F" stroke-width="2" stroke-miterlimit="10" cx="169.249" cy="81.575" r="3.273"/>
</g>
</svg>
